<svg width="20" height="20" viewBox="0 0 20 20" fill="none" xmlns="http://www.w3.org/2000/svg">
<path d="M11.1412 16.7085L12.8162 12.8168L13.1829 11.9501C13.2495 11.8168 13.4245 11.7001 13.5745 11.7001L16.1245 11.7001C16.9245 11.7001 17.8745 11.1085 18.2412 10.3918C18.3662 10.1418 18.3662 9.8418 18.2412 9.5918C17.8745 8.88346 16.9162 8.2918 16.1162 8.2918L13.5662 8.2918C13.4162 8.2918 13.2412 8.17513 13.1745 8.0418L11.1329 3.2918C10.9162 2.7668 10.2579 2.3418 9.69121 2.3418L8.59121 2.3418C7.88288 2.3418 7.53288 2.87513 7.81621 3.53346L9.61621 7.70846C9.75788 8.03346 9.58288 8.30013 9.22454 8.30013L8.29954 8.30013L6.79954 8.30013C6.60788 8.30013 6.33288 8.1918 6.19954 8.05846L4.25788 6.12513C4.05788 5.92513 3.66621 5.83346 3.38288 5.92513L2.24954 6.30013C1.75788 6.45013 1.52455 7.00846 1.75788 7.4668L3.42454 9.45013C3.68288 9.75013 3.68288 10.2418 3.42454 10.5418L1.75788 12.5251C1.53288 12.9835 1.75788 13.5418 2.24954 13.7085L3.38288 14.0835C3.65788 14.1751 4.05788 14.0835 4.25788 13.8835L6.19954 11.9501C6.33288 11.8085 6.60788 11.7001 6.79954 11.7001L9.22454 11.7001C9.58288 11.7001 9.74954 11.9585 9.61621 12.2918L7.81621 16.4668C7.53288 17.1251 7.88288 17.6585 8.59121 17.6585L9.69121 17.6585C10.2579 17.6585 10.9162 17.2335 11.1412 16.7085Z" fill="#1C1C1C"/>
</svg>
