<svg width="20" height="21" viewBox="0 0 20 21" fill="none" xmlns="http://www.w3.org/2000/svg">
<path d="M5 7.53275C5 6.64017 5.74619 5.91659 6.66667 5.91659H8.33333H11.6667H13.3333C14.2538 5.91659 15 6.64017 15 7.53275V15.5883C15 16.4809 14.2538 17.2045 13.3333 17.2045H6.66667C5.74619 17.2045 5 16.4809 5 15.5883V7.53275Z" fill="#D92D20"/>
<path d="M7.70833 17.2045C7.70833 16.8593 7.42851 16.5795 7.08333 16.5795C6.73816 16.5795 6.45833 16.8593 6.45833 17.2045H7.70833ZM6.45833 18.4166C6.45833 18.7618 6.73816 19.0416 7.08333 19.0416C7.42851 19.0416 7.70833 18.7618 7.70833 18.4166H6.45833ZM12.7083 18.4166C12.7083 18.7618 12.9882 19.0416 13.3333 19.0416C13.6785 19.0416 13.9583 18.7618 13.9583 18.4166H12.7083ZM6.45833 17.2045V18.4166H7.70833V17.2045H6.45833ZM12.7083 17.2045V18.4166H13.9583V17.2045H12.7083ZM14.375 7.53275V15.5883H15.625V7.53275H14.375ZM13.3333 16.5795H6.66667V17.8295H13.3333V16.5795ZM5.625 15.5883V7.53275H4.375V15.5883H5.625ZM6.66667 16.5795C6.0731 16.5795 5.625 16.1177 5.625 15.5883H4.375C4.375 16.8441 5.41928 17.8295 6.66667 17.8295V16.5795ZM14.375 15.5883C14.375 16.1177 13.9269 16.5795 13.3333 16.5795V17.8295C14.5807 17.8295 15.625 16.8441 15.625 15.5883H14.375ZM13.3333 6.54159C13.9269 6.54159 14.375 7.00333 14.375 7.53275H15.625C15.625 6.277 14.5807 5.29159 13.3333 5.29159V6.54159ZM6.66667 5.29159C5.41928 5.29159 4.375 6.277 4.375 7.53275H5.625C5.625 7.00333 6.0731 6.54159 6.66667 6.54159V5.29159ZM6.66667 6.54159H8.33333V5.29159H6.66667V6.54159ZM8.95833 5.91659V3.41658H7.70833V5.91659H8.95833ZM9.16667 3.20825H10.8333V1.95825H9.16667V3.20825ZM8.33333 6.54159H11.6667V5.29159H8.33333V6.54159ZM11.6667 6.54159H13.3333V5.29159H11.6667V6.54159ZM11.0417 3.41659V5.91659H12.2917V3.41659H11.0417ZM10.8333 3.20825C10.9484 3.20825 11.0417 3.30153 11.0417 3.41659H12.2917C12.2917 2.61117 11.6387 1.95825 10.8333 1.95825V3.20825ZM8.95833 3.41658C8.95833 3.30153 9.05161 3.20825 9.16667 3.20825V1.95825C8.36125 1.95825 7.70833 2.61117 7.70833 3.41658H8.95833Z" fill="#D92D20"/>
<path d="M8.33301 8L8.33301 14.7804M11.6663 8L11.6663 14.7804" stroke="white" stroke-width="1.25" stroke-linecap="round"/>
</svg>
