<svg width="24" height="24" viewBox="0 0 24 24" fill="none" xmlns="http://www.w3.org/2000/svg">
<path d="M6 8.43939C6 7.3683 6.89543 6.5 8 6.5H10H14H16C17.1046 6.5 18 7.3683 18 8.43939V18.1061C18 19.1772 17.1046 20.0455 16 20.0455H8C6.89543 20.0455 6 19.1772 6 18.1061V8.43939Z" fill="#27AE60"/>
<path d="M9.25 20.0455C9.25 19.6312 8.91421 19.2955 8.5 19.2955C8.08579 19.2955 7.75 19.6312 7.75 20.0455H9.25ZM7.75 21.5C7.75 21.9142 8.08579 22.25 8.5 22.25C8.91421 22.25 9.25 21.9142 9.25 21.5H7.75ZM15.25 21.5C15.25 21.9142 15.5858 22.25 16 22.25C16.4142 22.25 16.75 21.9142 16.75 21.5H15.25ZM7.75 20.0455V21.5H9.25V20.0455H7.75ZM15.25 20.0455V21.5H16.75V20.0455H15.25ZM17.25 8.43939V18.1061H18.75V8.43939H17.25ZM16 19.2955H8V20.7955H16V19.2955ZM6.75 18.1061V8.43939H5.25V18.1061H6.75ZM8 19.2955C7.28772 19.2955 6.75 18.7414 6.75 18.1061H5.25C5.25 19.613 6.50314 20.7955 8 20.7955V19.2955ZM17.25 18.1061C17.25 18.7414 16.7123 19.2955 16 19.2955V20.7955C17.4969 20.7955 18.75 19.613 18.75 18.1061H17.25ZM16 7.25C16.7123 7.25 17.25 7.8041 17.25 8.43939H18.75C18.75 6.9325 17.4969 5.75 16 5.75V7.25ZM8 5.75C6.50314 5.75 5.25 6.9325 5.25 8.43939H6.75C6.75 7.8041 7.28772 7.25 8 7.25V5.75ZM8 7.25H10V5.75H8V7.25ZM10.75 6.5V3.5H9.25V6.5H10.75ZM11 3.25H13V1.75H11V3.25ZM10 7.25H14V5.75H10V7.25ZM14 7.25H16V5.75H14V7.25ZM13.25 3.5V6.5H14.75V3.5H13.25ZM13 3.25C13.1381 3.25 13.25 3.36193 13.25 3.5H14.75C14.75 2.5335 13.9665 1.75 13 1.75V3.25ZM10.75 3.5C10.75 3.36193 10.8619 3.25 11 3.25V1.75C10.0335 1.75 9.25 2.5335 9.25 3.5H10.75Z" fill="#27AE60"/>
<path d="M10 9L10 17.1365M14 9L14 17.1365" stroke="white" stroke-width="1.5" stroke-linecap="round"/>
</svg>
