<svg width="18" height="19" viewBox="0 0 18 19" fill="none" xmlns="http://www.w3.org/2000/svg">
<path d="M9 1.521C4.8675 1.521 1.5 4.8885 1.5 9.021C1.5 13.1535 4.8675 16.521 9 16.521C13.1325 16.521 16.5 13.1535 16.5 9.021C16.5 4.8885 13.1325 1.521 9 1.521ZM12.585 7.296L8.3325 11.5485C8.2275 11.6535 8.085 11.7135 7.935 11.7135C7.785 11.7135 7.6425 11.6535 7.5375 11.5485L5.415 9.426C5.1975 9.2085 5.1975 8.8485 5.415 8.631C5.6325 8.4135 5.9925 8.4135 6.21 8.631L7.935 10.356L11.79 6.501C12.0075 6.2835 12.3675 6.2835 12.585 6.501C12.8025 6.7185 12.8025 7.071 12.585 7.296Z" fill="#27AE60"/>
</svg>
