<svg width="20" height="21" viewBox="0 0 20 21" fill="none" xmlns="http://www.w3.org/2000/svg">
<path fill-rule="evenodd" clip-rule="evenodd" d="M5 6.35732C4.79689 6.35873 4.30727 6.38048 3.86502 6.60582C3.39462 6.8455 3.01217 7.22795 2.77248 7.69836C2.5 8.23314 2.5 8.9332 2.5 10.3333V14C2.5 15.4001 2.5 16.1002 2.77248 16.635C3.01217 17.1054 3.39462 17.4878 3.86502 17.7275C4.30727 17.9529 5 17.976 5 17.976V6.35732Z" fill="#D92D20"/>
<path d="M7.5 18H12.5V6.33333H7.5V18Z" fill="#D92D20"/>
<path d="M17.5 10.3333V14C17.5 15.4001 17.5 16.1002 17.2275 16.635C16.9878 17.1054 16.0138 17.9725 15 18L15 6.33333C15.4948 6.33333 15.6927 6.38048 16.135 6.60582C16.6054 6.8455 16.9878 7.22795 17.2275 7.69836C17.5 8.23314 17.5 8.9332 17.5 10.3333Z" fill="#D92D20"/>
<path d="M15 18C16.0138 17.9725 16.9878 17.1054 17.2275 16.635C17.5 16.1002 17.5 15.4001 17.5 14V10.3333C17.5 8.9332 17.5 8.23314 17.2275 7.69836C16.9878 7.22795 16.6054 6.8455 16.135 6.60582C15.6927 6.38048 15.4948 6.33333 15 6.33333M15 18C15 13.4533 15 6.33333 15 6.33333M15 18L15 6.33333M7.5 6.33333V5.66667C7.5 4.73325 7.5 4.26654 7.68166 3.91002C7.84145 3.59641 8.09641 3.34144 8.41002 3.18166C8.76654 3 9.83333 3 10 3C10.9334 3 11.2335 3 11.59 3.18166C11.9036 3.34144 12.1586 3.59641 12.3183 3.91002C12.5 4.26654 12.5 4.73325 12.5 5.66667V6.33333M7.5 6.33333H12.5M7.5 6.33333V18H12.5V6.33333M3.86502 17.7275C3.39462 17.4878 3.01217 17.1054 2.77248 16.635C2.5 16.1002 2.5 15.4001 2.5 14V10.3333C2.5 8.9332 2.5 8.23314 2.77248 7.69836C3.01217 7.22795 3.39462 6.8455 3.86502 6.60582C4.30727 6.38048 4.79689 6.35873 5 6.35732V17.976C5 17.976 4.30727 17.9529 3.86502 17.7275Z" stroke="#D92D20" stroke-width="1.25" stroke-linecap="round"/>
</svg>

