<svg width="24" height="24" viewBox="0 0 24 24" fill="none" xmlns="http://www.w3.org/2000/svg">
<path d="M3 6.6C3 5.33988 3 4.70982 3.24524 4.22852C3.46095 3.80516 3.80516 3.46095 4.22852 3.24524C4.70982 3 5.33988 3 6.6 3H17.4C18.6601 3 19.2902 3 19.7715 3.24524C20.1948 3.46095 20.539 3.80516 20.7548 4.22852C21 4.70982 21 5.33988 21 6.6V17.4C21 18.6601 21 19.2902 20.7548 19.7715C20.539 20.1948 20.1948 20.539 19.7715 20.7548C19.2902 21 18.6601 21 17.4 21H6.6C5.33988 21 4.70982 21 4.22852 20.7548C3.80516 20.539 3.46095 20.1948 3.24524 19.7715C3 19.2902 3 18.6601 3 17.4V6.6Z" fill="#D92D20" stroke="#D92D20" stroke-width="1.5" stroke-linecap="round" stroke-linejoin="round"/>
<path d="M7 14.5H14.5C15.8807 14.5 17 13.1569 17 11.5C17 9.84315 15.8807 8.5 14.5 8.5H9M7 14.5L8.66667 16.5M7 14.5L8.66667 12.5" stroke="white" stroke-width="1.5" stroke-linecap="round" stroke-linejoin="round"/>
</svg>
