<svg width="24" height="24" viewBox="0 0 24 24" fill="none" xmlns="http://www.w3.org/2000/svg">
<mask id="path-1-inside-1_11277_1966" fill="white">
<path fill-rule="evenodd" clip-rule="evenodd" d="M4.689 2.07033C4.43207 2.17854 4.17142 2.46096 4.07491 2.73578C3.95211 3.08542 3.97251 3.32006 4.19423 4.10828C4.56788 5.43673 4.79014 6.37842 5.00163 7.52942C5.12285 8.18903 5.17595 8.53592 5.54272 11.0626C5.82227 12.9885 5.93284 13.6047 6.15057 14.4502C6.33278 15.1577 6.77004 16.5077 6.88427 16.7154C7.00513 16.9351 7.26703 17.1814 7.50743 17.3015L7.71089 17.4031H13.053H18.3951L18.6381 17.2993C19.3089 17.013 19.7996 16.4193 19.9572 15.7034C20.0197 15.4197 20.0129 14.9343 19.9425 14.644C19.7928 14.027 19.387 13.4893 18.8611 13.2113C18.7625 13.1591 18.619 13.0948 18.5421 13.0682C18.1674 12.9389 18.1233 12.9419 14.0802 13.379C11.9437 13.6099 10.1876 13.7902 10.1778 13.7798C10.168 13.7693 9.95163 12.9474 9.69703 11.9533C9.03731 9.37715 8.64974 8.13437 7.98983 6.47903C7.6532 5.63459 6.88068 3.98376 6.42585 3.13687C5.91907 2.19328 5.73536 2.02567 5.18326 2.00299C4.93896 1.99298 4.8409 2.00635 4.689 2.07033ZM15.1683 8.94546C14.5239 9.02006 9.98515 9.5158 9.94765 9.51569C9.93556 9.51565 9.9769 9.70037 10.0395 9.92622C10.1021 10.1521 10.2083 10.556 10.2755 10.8238C10.3643 11.1779 10.4126 11.311 10.4525 11.3114C10.4827 11.3117 11.7981 11.1728 13.3756 11.0027C16.0102 10.7187 16.2589 10.6859 16.4285 10.6002C17.0599 10.281 17.0615 9.29828 16.4311 8.96364C16.2091 8.84577 16.0494 8.84348 15.1683 8.94546ZM8.19795 18.5799C7.62728 19.935 7.04761 21.4362 7.04761 21.5591C7.04761 21.6677 7.07658 21.7349 7.17034 21.844L7.29306 21.9866L12.4497 21.9976C15.2858 22.0036 17.6615 21.998 17.7289 21.9851C17.7987 21.9717 17.8954 21.9117 17.953 21.8459C18.1438 21.6284 18.1256 21.5584 17.4376 19.8609L16.8209 18.3389H16.3441C16.0819 18.3389 15.8674 18.3467 15.8674 18.3561C15.8674 18.3656 16.1027 18.9543 16.3902 19.6643C16.6778 20.3744 16.9215 20.9768 16.9319 21.0031C16.9468 21.0411 16.0582 21.0508 12.5574 21.0508H8.16414L8.71402 19.6949L9.26393 18.3389H8.78171H8.29945L8.19795 18.5799Z"/>
</mask>
<path fill-rule="evenodd" clip-rule="evenodd" d="M4.689 2.07033C4.43207 2.17854 4.17142 2.46096 4.07491 2.73578C3.95211 3.08542 3.97251 3.32006 4.19423 4.10828C4.56788 5.43673 4.79014 6.37842 5.00163 7.52942C5.12285 8.18903 5.17595 8.53592 5.54272 11.0626C5.82227 12.9885 5.93284 13.6047 6.15057 14.4502C6.33278 15.1577 6.77004 16.5077 6.88427 16.7154C7.00513 16.9351 7.26703 17.1814 7.50743 17.3015L7.71089 17.4031H13.053H18.3951L18.6381 17.2993C19.3089 17.013 19.7996 16.4193 19.9572 15.7034C20.0197 15.4197 20.0129 14.9343 19.9425 14.644C19.7928 14.027 19.387 13.4893 18.8611 13.2113C18.7625 13.1591 18.619 13.0948 18.5421 13.0682C18.1674 12.9389 18.1233 12.9419 14.0802 13.379C11.9437 13.6099 10.1876 13.7902 10.1778 13.7798C10.168 13.7693 9.95163 12.9474 9.69703 11.9533C9.03731 9.37715 8.64974 8.13437 7.98983 6.47903C7.6532 5.63459 6.88068 3.98376 6.42585 3.13687C5.91907 2.19328 5.73536 2.02567 5.18326 2.00299C4.93896 1.99298 4.8409 2.00635 4.689 2.07033ZM15.1683 8.94546C14.5239 9.02006 9.98515 9.5158 9.94765 9.51569C9.93556 9.51565 9.9769 9.70037 10.0395 9.92622C10.1021 10.1521 10.2083 10.556 10.2755 10.8238C10.3643 11.1779 10.4126 11.311 10.4525 11.3114C10.4827 11.3117 11.7981 11.1728 13.3756 11.0027C16.0102 10.7187 16.2589 10.6859 16.4285 10.6002C17.0599 10.281 17.0615 9.29828 16.4311 8.96364C16.2091 8.84577 16.0494 8.84348 15.1683 8.94546ZM8.19795 18.5799C7.62728 19.935 7.04761 21.4362 7.04761 21.5591C7.04761 21.6677 7.07658 21.7349 7.17034 21.844L7.29306 21.9866L12.4497 21.9976C15.2858 22.0036 17.6615 21.998 17.7289 21.9851C17.7987 21.9717 17.8954 21.9117 17.953 21.8459C18.1438 21.6284 18.1256 21.5584 17.4376 19.8609L16.8209 18.3389H16.3441C16.0819 18.3389 15.8674 18.3467 15.8674 18.3561C15.8674 18.3656 16.1027 18.9543 16.3902 19.6643C16.6778 20.3744 16.9215 20.9768 16.9319 21.0031C16.9468 21.0411 16.0582 21.0508 12.5574 21.0508H8.16414L8.71402 19.6949L9.26393 18.3389H8.78171H8.29945L8.19795 18.5799Z" stroke="#27AE60" stroke-width="16.8889" mask="url(#path-1-inside-1_11277_1966)"/>
</svg>
