<svg width="18" height="19" viewBox="0 0 18 19" fill="none" xmlns="http://www.w3.org/2000/svg">
<path d="M9 17.0835C4.5525 17.0835 0.9375 13.4685 0.9375 9.021C0.9375 4.5735 4.5525 0.958496 9 0.958496C13.4475 0.958496 17.0625 4.5735 17.0625 9.021C17.0625 13.4685 13.4475 17.0835 9 17.0835ZM9 2.0835C5.175 2.0835 2.0625 5.196 2.0625 9.021C2.0625 12.846 5.175 15.9585 9 15.9585C12.825 15.9585 15.9375 12.846 15.9375 9.021C15.9375 5.196 12.825 2.0835 9 2.0835Z" fill="#D92D20"/>
<path d="M3.67586 14.8336C3.53336 14.8336 3.39086 14.7811 3.27836 14.6686C3.06086 14.4511 3.06086 14.0911 3.27836 13.8736L13.7784 3.37357C13.9959 3.15607 14.3559 3.15607 14.5734 3.37357C14.7909 3.59107 14.7909 3.95107 14.5734 4.16857L4.07336 14.6686C3.96086 14.7811 3.81836 14.8336 3.67586 14.8336Z" fill="#D92D20"/>
</svg>
