<svg width="6" height="72" viewBox="0 0 6 72" fill="none" xmlns="http://www.w3.org/2000/svg">
<path d="M3 0.333333C1.52724 0.333333 0.333333 1.52724 0.333333 3C0.333333 4.47276 1.52724 5.66667 3 5.66667C4.47276 5.66667 5.66667 4.47276 5.66667 3C5.66667 1.52724 4.47276 0.333333 3 0.333333ZM3 66.3333C1.52724 66.3333 0.33333 67.5272 0.33333 69C0.33333 70.4728 1.52724 71.6667 3 71.6667C4.47276 71.6667 5.66666 70.4728 5.66666 69C5.66666 67.5272 4.47276 66.3333 3 66.3333ZM2.5 3L2.5 69L3.5 69L3.5 3L2.5 3Z" fill="#E2AE12"/>
</svg>
