<svg width="13" height="12" viewBox="0 0 13 12" fill="none" xmlns="http://www.w3.org/2000/svg">
<path d="M8 1.5V3.2C8 3.48003 8 3.62004 8.0545 3.727C8.10243 3.82108 8.17892 3.89757 8.273 3.9455C8.37996 4 8.51997 4 8.8 4H10.5M5.5 4H3.5C2.94772 4 2.5 4.44772 2.5 5V9.5C2.5 10.0523 2.94772 10.5 3.5 10.5H6.5C7.05228 10.5 7.5 10.0523 7.5 9.5V8M8.5 1.5H7.1C6.53995 1.5 6.25992 1.5 6.04601 1.60899C5.85785 1.70487 5.70487 1.85785 5.60899 2.04601C5.5 2.25992 5.5 2.53995 5.5 3.1V6.4C5.5 6.96005 5.5 7.24008 5.60899 7.45399C5.70487 7.64215 5.85785 7.79513 6.04601 7.89101C6.25992 8 6.53995 8 7.1 8H8.9C9.46005 8 9.74008 8 9.95399 7.89101C10.1422 7.79513 10.2951 7.64215 10.391 7.45399C10.5 7.24008 10.5 6.96005 10.5 6.4V3.5L8.5 1.5Z" stroke="#0057BE" stroke-linejoin="round"/>
</svg>
