<svg width="24" height="24" viewBox="0 0 24 24" fill="none" xmlns="http://www.w3.org/2000/svg">
<g clip-path="url(#clip0_12907_769601)">
<path d="M18.4232 5.55176C17.0687 2.21435 14.6919 0 11.9866 0C9.28122 0 6.90443 2.21435 5.54992 5.55176C2.21313 6.90504 0 9.28183 0 11.9866C0 14.3304 1.66046 16.4269 4.27603 17.826C4.0916 17.0131 4.06107 16.1576 4.20641 15.3032C2.93496 14.3847 2.17954 13.2348 2.17954 11.986C2.17954 10.5783 3.14198 9.29466 4.72183 8.32672C4.4855 9.48092 4.35908 10.7096 4.35908 11.986C4.35908 12.7456 4.40366 13.4889 4.49099 14.2089C4.49099 14.2076 4.49221 14.2064 4.49221 14.2058C4.91298 13.0205 5.63969 12.0318 6.55267 11.2983C6.60824 9.82595 6.84458 8.44458 7.2226 7.22321C8.63389 6.78595 10.2571 6.53802 11.9866 6.53802C13.2354 6.53802 14.4305 6.66748 15.5292 6.90504C15.1792 5.92977 14.7304 5.10595 14.2107 4.49038C13.4901 4.40305 12.7463 4.35847 11.9866 4.35847C10.7108 4.35847 9.48031 4.48611 8.32611 4.72122C9.29343 3.14137 10.5771 2.17893 11.9866 2.17893C13.396 2.17893 14.6791 3.14137 15.6458 4.72122C16.0861 5.43817 16.4598 6.28397 16.7493 7.22321C17.1866 8.63328 17.4345 10.2571 17.4345 11.986C17.4345 13.2348 17.305 14.4287 17.0681 15.5273C18.0421 15.1774 18.866 14.7298 19.4815 14.2119C19.5689 13.4907 19.6134 12.7463 19.6134 11.986C19.6134 10.7096 19.487 9.48092 19.2507 8.32672C20.8305 9.29466 21.793 10.5777 21.793 11.986C21.793 13.3942 20.8305 14.6773 19.2507 15.6452C18.5325 16.0855 17.6879 16.4592 16.7487 16.7493C15.3386 17.1866 13.7142 17.4345 11.986 17.4345C10.7359 17.4345 9.54198 17.305 8.44336 17.0675C8.7945 18.0427 9.24214 18.8666 9.76 19.4821C10.4812 19.5695 11.2256 19.614 11.986 19.614C13.2623 19.614 14.491 19.4864 15.6452 19.2513C14.6785 20.8311 13.3948 21.7936 11.986 21.7936C10.5771 21.7936 9.29344 20.8311 8.3255 19.2513C8.01588 18.7469 7.74046 18.1789 7.50168 17.5603C7.50168 17.5591 7.50046 17.5573 7.50046 17.556C6.87145 15.8247 7.76611 13.9108 9.49802 13.2812C9.87847 13.1438 10.2675 13.0785 10.6485 13.0797V13.0773C10.8324 13.0773 11.0357 13.0791 11.2501 13.0803L10.1441 15.8547H10.9014C11.3728 15.8547 11.8198 15.5963 12.1221 15.1493L13.5774 12.9942C14.5899 12.8757 15.4815 12.6034 15.7905 11.9872C15.4821 11.3704 14.5899 11.098 13.5774 10.9802L12.1221 8.82504C11.8205 8.37801 11.3734 8.1197 10.9014 8.1197H10.1441L11.2501 10.894C11.0357 10.8953 10.8324 10.8971 10.6485 10.8971V10.8922C9.97313 10.8934 9.28855 11.0198 8.62412 11.2837C7.80275 11.6104 7.1029 12.1142 6.55389 12.7316C5.21344 14.2363 4.75359 16.4232 5.54931 18.422V18.4232C6.90382 21.7606 9.28061 23.9737 11.986 23.9737C14.6913 23.9737 17.0681 21.7594 18.4226 18.422C21.7594 17.0687 23.9725 14.6919 23.9725 11.9872C23.9725 9.28244 21.7594 6.90626 18.4226 5.55237L18.4232 5.55176Z" fill="#0057BE"/>
</g>
<defs>
<clipPath id="clip0_12907_769601">
<rect width="24" height="24" fill="white"/>
</clipPath>
</defs>
</svg>
