<svg width="24" height="25" viewBox="0 0 24 25" fill="none" xmlns="http://www.w3.org/2000/svg">
<g clip-path="url(#clip0_12907_769574)">
<path d="M18.4232 6.05176C17.0687 2.71435 14.6919 0.5 11.9866 0.5C9.28122 0.5 6.90443 2.71435 5.54992 6.05176C2.21313 7.40504 0 9.78183 0 12.4866C0 14.8304 1.66046 16.9269 4.27603 18.326C4.0916 17.5131 4.06107 16.6576 4.20641 15.8032C2.93496 14.8847 2.17954 13.7348 2.17954 12.486C2.17954 11.0783 3.14198 9.79466 4.72183 8.82672C4.4855 9.98092 4.35908 11.2096 4.35908 12.486C4.35908 13.2456 4.40366 13.9889 4.49099 14.7089C4.49099 14.7076 4.49221 14.7064 4.49221 14.7058C4.91298 13.5205 5.63969 12.5318 6.55267 11.7983C6.60824 10.326 6.84458 8.94458 7.2226 7.72321C8.63389 7.28595 10.2571 7.03802 11.9866 7.03802C13.2354 7.03802 14.4305 7.16748 15.5292 7.40504C15.1792 6.42977 14.7304 5.60595 14.2107 4.99038C13.4901 4.90305 12.7463 4.85847 11.9866 4.85847C10.7108 4.85847 9.48031 4.98611 8.32611 5.22122C9.29343 3.64137 10.5771 2.67893 11.9866 2.67893C13.396 2.67893 14.6791 3.64137 15.6458 5.22122C16.0861 5.93817 16.4598 6.78397 16.7493 7.72321C17.1866 9.13328 17.4345 10.7571 17.4345 12.486C17.4345 13.7348 17.305 14.9287 17.0681 16.0273C18.0421 15.6774 18.866 15.2298 19.4815 14.7119C19.5689 13.9907 19.6134 13.2463 19.6134 12.486C19.6134 11.2096 19.487 9.98092 19.2507 8.82672C20.8305 9.79466 21.793 11.0777 21.793 12.486C21.793 13.8942 20.8305 15.1773 19.2507 16.1452C18.5325 16.5855 17.6879 16.9592 16.7487 17.2493C15.3386 17.6866 13.7142 17.9345 11.986 17.9345C10.7359 17.9345 9.54198 17.805 8.44336 17.5675C8.7945 18.5427 9.24214 19.3666 9.76 19.9821C10.4812 20.0695 11.2256 20.114 11.986 20.114C13.2623 20.114 14.491 19.9864 15.6452 19.7513C14.6785 21.3311 13.3948 22.2936 11.986 22.2936C10.5771 22.2936 9.29344 21.3311 8.3255 19.7513C8.01588 19.2469 7.74046 18.6789 7.50168 18.0603C7.50168 18.0591 7.50046 18.0573 7.50046 18.056C6.87145 16.3247 7.76611 14.4108 9.49802 13.7812C9.87847 13.6438 10.2675 13.5785 10.6485 13.5797V13.5773C10.8324 13.5773 11.0357 13.5791 11.2501 13.5803L10.1441 16.3547H10.9014C11.3728 16.3547 11.8198 16.0963 12.1221 15.6493L13.5774 13.4942C14.5899 13.3757 15.4815 13.1034 15.7905 12.4872C15.4821 11.8704 14.5899 11.598 13.5774 11.4802L12.1221 9.32504C11.8205 8.87801 11.3734 8.6197 10.9014 8.6197H10.1441L11.2501 11.394C11.0357 11.3953 10.8324 11.3971 10.6485 11.3971V11.3922C9.97313 11.3934 9.28855 11.5198 8.62412 11.7837C7.80275 12.1104 7.1029 12.6142 6.55389 13.2316C5.21344 14.7363 4.75359 16.9232 5.54931 18.922V18.9232C6.90382 22.2606 9.28061 24.4737 11.986 24.4737C14.6913 24.4737 17.0681 22.2594 18.4226 18.922C21.7594 17.5687 23.9725 15.1919 23.9725 12.4872C23.9725 9.78244 21.7594 7.40626 18.4226 6.05237L18.4232 6.05176Z" fill="white"/>
</g>
<defs>
<clipPath id="clip0_12907_769574">
<rect width="24" height="24" fill="white" transform="translate(0 0.5)"/>
</clipPath>
</defs>
</svg>
