<svg width="16" height="20" viewBox="0 0 16 20" fill="none" xmlns="http://www.w3.org/2000/svg">
<path d="M11.7998 0.250004C12.3475 0.250004 12.8037 0.248979 13.1748 0.279301C13.5545 0.310333 13.9109 0.378098 14.2481 0.549809L14.4375 0.656254C14.8683 0.92048 15.2195 1.29917 15.4502 1.75196L15.5098 1.87891C15.6382 2.1783 15.6935 2.49281 15.7207 2.8252C15.751 3.19633 15.75 3.65252 15.75 4.2002V19C15.75 19.2882 15.5849 19.5508 15.3252 19.6758C15.0977 19.7851 14.8326 19.7723 14.6191 19.6465L14.5313 19.5859L12.5 17.9609L10.4688 19.5859C10.1703 19.8247 9.73996 19.8005 9.46973 19.5303L8 18.0606L6.53028 19.5303C6.26005 19.8005 5.82967 19.8247 5.53125 19.5859L3.5 17.9609L1.46875 19.5859C1.24363 19.766 0.934658 19.8007 0.674809 19.6758C0.415149 19.5508 0.250004 19.2882 0.250004 19V4.2002C0.250004 3.65252 0.248979 3.19633 0.279301 2.8252C0.310333 2.44547 0.378097 2.0891 0.549809 1.75196L0.656254 1.5625C0.920481 1.13169 1.29916 0.780519 1.75196 0.549809L1.87891 0.490238C2.1783 0.361838 2.49281 0.306464 2.8252 0.279301C3.19633 0.248979 3.65252 0.250004 4.2002 0.250004H11.7998ZM5 12.25C4.58579 12.25 4.25001 12.5858 4.25 13C4.25 13.4142 4.58579 13.75 5 13.75H11C11.4142 13.75 11.75 13.4142 11.75 13C11.75 12.5858 11.4142 12.25 11 12.25H5ZM5 8.25C4.58579 8.25001 4.25001 8.58579 4.25 9C4.25 9.41422 4.58579 9.75 5 9.75H11C11.4142 9.75 11.75 9.41422 11.75 9C11.75 8.58579 11.4142 8.25 11 8.25H5ZM5 4.25C4.58579 4.25001 4.25001 4.58579 4.25 5C4.25 5.41422 4.58579 5.75 5 5.75H9C9.41422 5.75 9.75 5.41422 9.75 5C9.75 4.58579 9.41422 4.25 9 4.25H5Z" fill="#0057BE"/>
</svg>
