<svg width="24" height="24" viewBox="0 0 24 24" fill="none" xmlns="http://www.w3.org/2000/svg">
<path d="M12 3.5C12.4975 3.5 12.6441 3.50494 12.7646 3.54004L12.9102 3.59473C13.0505 3.66097 13.1746 3.76008 13.2715 3.88379L13.3281 3.96875C13.3861 4.06989 13.4543 4.23186 13.5928 4.57812L13.6641 4.73633C14.0592 5.49919 14.9591 5.87462 15.79 5.59766L16.3604 5.40723L16.8164 5.26074C16.9171 5.23228 16.9788 5.22117 17.0371 5.21777L17.1816 5.21973C17.3261 5.23234 17.467 5.27675 17.5938 5.34961L17.6719 5.40234C17.7572 5.46783 17.8728 5.5798 18.1143 5.82129L18.4697 6.18652C18.5444 6.2687 18.5844 6.32136 18.6143 6.375L18.6777 6.51367C18.7132 6.60929 18.7341 6.70981 18.7393 6.81152L18.7354 6.96387C18.729 7.02496 18.7131 7.08926 18.6768 7.19434L18.4941 7.66992C18.1393 8.55694 18.4798 9.57051 19.2988 10.0625L19.5781 10.2295L20.0498 10.5225C20.15 10.5904 20.2056 10.637 20.251 10.6885L20.3145 10.7695C20.3743 10.8536 20.4207 10.9467 20.4521 11.0449L20.4775 11.1533C20.484 11.1948 20.4889 11.2435 20.4922 11.3047L20.5 11.8662C20.5 12.3408 20.4953 12.5642 20.4697 12.709L20.4365 12.834C20.3947 12.9462 20.3336 13.0498 20.2559 13.1396L20.1729 13.2246C20.0848 13.3046 19.9681 13.3669 19.6699 13.4912L19.3057 13.6396C18.5033 13.9606 18.0889 14.8516 18.3623 15.6719L18.5781 16.3174C18.7363 16.7919 18.7782 16.9352 18.7822 17.0645L18.7783 17.1953C18.7696 17.2826 18.7489 17.3683 18.7178 17.4502L18.6631 17.5693C18.6324 17.6262 18.5919 17.6818 18.5146 17.7676L18.1465 18.1465C17.8798 18.4132 17.7521 18.5365 17.6572 18.6074L17.5693 18.6641C17.4535 18.7265 17.3262 18.7661 17.1953 18.7793L17.0635 18.7832C16.9991 18.7812 16.9314 18.7701 16.8203 18.7393L16.3164 18.5781L15.7891 18.4023C14.9583 18.1257 14.059 18.5012 13.6641 19.2637L13.5928 19.4219C13.4543 19.7682 13.3861 19.9301 13.3281 20.0312L13.2715 20.1162C13.1746 20.24 13.0505 20.339 12.9102 20.4053L12.7646 20.46C12.6441 20.4951 12.4975 20.5 12 20.5C11.6269 20.5 11.4513 20.4975 11.3359 20.4814L11.2354 20.46C11.0853 20.4161 10.9478 20.3377 10.834 20.2314L10.7285 20.1162C10.6899 20.0668 10.6557 20.0086 10.6084 19.9053L10.4072 19.4219C10.0818 18.6085 9.21447 18.1643 8.37695 18.3555L8.20996 18.4023L7.68359 18.5781C7.32587 18.6974 7.15671 18.7515 7.04004 18.7725L6.93555 18.7832C6.80345 18.7872 6.67235 18.7653 6.5498 18.7188L6.43066 18.6641C6.37402 18.6335 6.31886 18.5928 6.2334 18.5156L5.85352 18.1465C5.58677 17.8797 5.46347 17.7521 5.39258 17.6572L5.33594 17.5693C5.25261 17.4147 5.21144 17.2405 5.2168 17.0645L5.22754 16.96C5.24851 16.8433 5.30265 16.6741 5.42188 16.3164L5.63672 15.6709L5.67969 15.5166C5.84473 14.7939 5.49913 14.0472 4.84082 13.7061L4.69434 13.6396C4.258 13.4651 4.05465 13.3788 3.93066 13.3018L3.82715 13.2246C3.73896 13.1444 3.66584 13.049 3.61133 12.9434L3.56348 12.834C3.52192 12.7225 3.50673 12.5899 3.50195 12.2637L3.5 11.8662C3.5 11.3328 3.50613 11.1757 3.54785 11.0449L3.58398 10.9482C3.62526 10.8541 3.68079 10.7661 3.74902 10.6885L3.8291 10.6113C3.92511 10.5313 4.08298 10.4328 4.42188 10.2295L4.69922 10.0635L4.84766 9.96484C5.51142 9.47966 5.79942 8.62602 5.56445 7.83789L5.50586 7.66992C5.37085 7.33239 5.30967 7.17272 5.28223 7.0625L5.26465 6.96387C5.24371 6.76023 5.28597 6.55436 5.38574 6.375L5.44141 6.29102C5.51018 6.20042 5.62937 6.07766 5.88574 5.82129L6.22852 5.48633C6.30575 5.41592 6.35572 5.37869 6.40625 5.34961L6.53711 5.28613C6.6719 5.2328 6.81733 5.20934 6.96289 5.21777L7.05762 5.23047C7.16321 5.25094 7.31655 5.29953 7.63965 5.40723L8.20996 5.59766L8.37695 5.64453C9.21448 5.83563 10.0818 5.39161 10.4072 4.57812L10.6084 4.09473C10.6558 3.9914 10.6899 3.93317 10.7285 3.88379L10.834 3.76855C10.9478 3.6623 11.0853 3.58392 11.2354 3.54004L11.3359 3.51855C11.4513 3.50248 11.6269 3.5 12 3.5ZM12 8C9.79086 8 8 9.79086 8 12C8 14.2091 9.79086 16 12 16C14.2091 16 16 14.2091 16 12C16 9.79086 14.2091 8 12 8Z" fill="#0057BE"/>
<path fill-rule="evenodd" clip-rule="evenodd" d="M12 14.5C13.3807 14.5 14.5 13.3807 14.5 12C14.5 10.6193 13.3807 9.5 12 9.5C10.6193 9.5 9.5 10.6193 9.5 12C9.5 13.3807 10.6193 14.5 12 14.5Z" fill="#0057BE"/>
</svg>
