<svg width="17" height="16" viewBox="0 0 17 16" fill="none" xmlns="http://www.w3.org/2000/svg">
<path d="M8.2009 6H13.8009C14.921 6 15.4811 6 15.9089 6.21799C16.2852 6.40973 16.5912 6.71569 16.7829 7.09202C17.0009 7.51984 17.0009 8.0799 17.0009 9.2V16L14.8071 14.5374C14.5074 14.3377 14.3576 14.2378 14.1955 14.167C14.0516 14.1042 13.9009 14.0586 13.7463 14.031C13.5722 14 13.3921 14 13.032 14H8.2009C7.08079 14 6.52074 14 6.09292 13.782C5.71659 13.5903 5.41063 13.2843 5.21889 12.908C5.0009 12.4802 5.0009 11.9201 5.0009 10.8V9.2C5.0009 8.0799 5.0009 7.51984 5.21889 7.09202C5.41063 6.71569 5.71659 6.40973 6.09292 6.21799C6.52074 6 7.08079 6 8.2009 6Z" fill="#0057BE"/>
<path d="M11.583 0H3.98299C2.86288 0 2.30283 0 1.87501 0.217987C1.49868 0.409734 1.19272 0.715695 1.00098 1.09202C0.78299 1.51984 0.78299 2.0799 0.78299 3.2V14L3.50098 12V7C3.50098 5.5 4.89238 4.62883 5.87501 4.6C9.28299 4.5 14.783 4.6 14.783 4.6V3.2C14.783 2.0799 14.783 1.51984 14.565 1.09202C14.3733 0.715695 14.0673 0.409734 13.691 0.217987C13.2631 0 12.7031 0 11.583 0Z" fill="#0057BE"/>
</svg>
