<svg width="22" height="18" viewBox="0 0 22 18" fill="none" xmlns="http://www.w3.org/2000/svg">
<path fill-rule="evenodd" clip-rule="evenodd" d="M4.01196 0.459961H11.0012C11.0409 1.87503 12.2005 3.00996 13.6252 3.00996C15.0499 3.00996 16.2094 1.87503 16.2491 0.459961H17.9884C20.0936 0.459961 21.8002 2.16655 21.8002 4.27173V13.7287C21.8002 15.8338 20.0936 17.5404 17.9884 17.5404H16.2491C16.2094 16.1254 15.0499 14.9904 13.6252 14.9904C12.2005 14.9904 11.0409 16.1254 11.0012 17.5404H4.01197C1.90679 17.5404 0.200208 15.8338 0.200208 13.7287L0.200195 4.27172C0.200195 2.16655 1.90678 0.459961 4.01196 0.459961ZM12.501 6V12C12.501 12 12.501 13 13.501 13C14.501 13 14.501 12 14.501 12V6C14.501 6 14.501 5 13.501 5C12.501 5 12.501 6 12.501 6Z" fill="#0057BE"/>
</svg>
