<svg width="19" height="18" viewBox="0 0 19 18" fill="none" xmlns="http://www.w3.org/2000/svg">
<path d="M17.667 5.4C17.667 5.96005 17.667 6.24008 17.558 6.45399C17.4621 6.64215 17.3091 6.79513 17.121 6.89101C16.9071 7 16.627 7 16.067 7H14.667C13.0101 7 11.667 5.65685 11.667 4V2.6C11.667 2.03995 11.667 1.75992 11.776 1.54601C11.8719 1.35785 12.0248 1.20487 12.213 1.10899C12.4269 1 12.7069 1 13.267 1H14.667C16.3238 1 17.667 2.34315 17.667 4V5.4Z" stroke="#8E8E92" stroke-width="1.8" stroke-linecap="round" stroke-linejoin="round"/>
<path d="M3.26699 7C2.70694 7 2.42691 7 2.213 6.89101C2.02484 6.79513 1.87186 6.64215 1.77599 6.45399C1.66699 6.24008 1.66699 5.96005 1.66699 5.4V4C1.66699 2.34315 3.01014 1 4.66699 1H6.06699C6.62704 1 6.90707 1 7.12098 1.10899C7.30914 1.20487 7.46213 1.35785 7.558 1.54601C7.66699 1.75992 7.66699 2.03995 7.66699 2.6V4C7.66699 5.65685 6.32385 7 4.66699 7H3.26699Z" stroke="#8E8E92" stroke-width="1.8" stroke-linecap="round" stroke-linejoin="round"/>
<path d="M7.66699 15.4C7.66699 15.9601 7.66699 16.2401 7.558 16.454C7.46213 16.6422 7.30914 16.7951 7.12098 16.891C6.90707 17 6.62704 17 6.06699 17H4.66699C3.01014 17 1.66699 15.6569 1.66699 14V12.6C1.66699 12.0399 1.66699 11.7599 1.77599 11.546C1.87186 11.3578 2.02484 11.2049 2.213 11.109C2.42691 11 2.70694 11 3.26699 11H4.66699C6.32385 11 7.66699 12.3431 7.66699 14V15.4Z" stroke="#8E8E92" stroke-width="1.8" stroke-linecap="round" stroke-linejoin="round"/>
<path d="M13.267 17C12.7069 17 12.4269 17 12.213 16.891C12.0248 16.7951 11.8719 16.6422 11.776 16.454C11.667 16.2401 11.667 15.9601 11.667 15.4V14C11.667 12.3431 13.0101 11 14.667 11H16.067C16.627 11 16.9071 11 17.121 11.109C17.3091 11.2049 17.4621 11.3578 17.558 11.546C17.667 11.7599 17.667 12.0399 17.667 12.6V14C17.667 15.6569 16.3238 17 14.667 17H13.267Z" stroke="#8E8E92" stroke-width="1.8" stroke-linecap="round" stroke-linejoin="round"/>
</svg>
