<svg width="25" height="24" viewBox="0 0 25 24" fill="none" xmlns="http://www.w3.org/2000/svg">
<path d="M9.66602 16.9999H15.666M3.66602 14.5999V12.1301C3.66602 10.9814 3.66602 10.407 3.81407 9.87807C3.94522 9.40953 4.16075 8.96886 4.45007 8.57768C4.77669 8.13608 5.23006 7.78346 6.1368 7.07822L8.7368 5.056C10.1421 3.96298 10.8447 3.41648 11.6206 3.2064C12.3052 3.02104 13.0268 3.02104 13.7114 3.2064C14.4873 3.41648 15.1899 3.96299 16.5952 5.056L19.1952 7.07822C20.102 7.78346 20.5553 8.13608 20.882 8.57768C21.1713 8.96886 21.3868 9.40953 21.518 9.87807C21.666 10.407 21.666 10.9814 21.666 12.1301V14.5999C21.666 16.8401 21.666 17.9603 21.23 18.8159C20.8465 19.5685 20.2346 20.1805 19.482 20.564C18.6263 20.9999 17.5062 20.9999 15.266 20.9999H10.066C7.82581 20.9999 6.7057 20.9999 5.85005 20.564C5.09741 20.1805 4.48548 19.5685 4.10199 18.8159C3.66602 17.9603 3.66602 16.8401 3.66602 14.5999Z" stroke="#8E8E92" stroke-width="1.5" stroke-linecap="round" stroke-linejoin="round"/>
</svg>
