<svg width="125" height="32" viewBox="0 0 125 32" fill="none" xmlns="http://www.w3.org/2000/svg">
<g clip-path="url(#clip0_11507_5554)">
<path d="M24.6548 7.41203C22.8421 2.95545 19.6602 0 16.0401 0C12.42 0 9.23805 2.95545 7.42539 7.41203C2.96285 9.21756 0 12.3889 0 16C0 19.1298 2.22214 21.9265 5.72227 23.7945C5.47711 22.7096 5.43538 21.5675 5.62838 20.428C3.92787 19.2026 2.91591 17.6676 2.91591 16C2.91591 14.1216 4.20433 12.4072 6.31693 11.1167C6.00134 12.6569 5.83182 14.2985 5.83182 16C5.83182 17.0146 5.8918 18.0059 6.00917 18.9685C6.00917 18.9685 6.00917 18.9659 6.00917 18.9633C6.57253 17.3815 7.54537 16.0624 8.76598 15.0816C8.84162 13.1174 9.1572 11.2728 9.66318 9.64163C11.5515 9.05886 13.7241 8.72585 16.0375 8.72585C17.7093 8.72585 19.3081 8.90016 20.7791 9.21496C20.3122 7.91415 19.7098 6.81366 19.016 5.99154C18.051 5.87447 17.0573 5.81463 16.0401 5.81463C14.3318 5.81463 12.686 5.98374 11.142 6.29854C12.4356 4.18862 14.1544 2.90602 16.0401 2.90602C17.9258 2.90602 19.6446 4.19122 20.9356 6.29854C21.525 7.25593 22.0258 8.38504 22.4118 9.63902C22.996 11.52 23.3299 13.6898 23.3299 15.9974C23.3299 17.665 23.1551 19.2572 22.8395 20.7246C24.1436 20.2589 25.2442 19.6605 26.0684 18.9685C26.1858 18.0059 26.2458 17.012 26.2458 15.9974C26.2458 14.2933 26.0762 12.6543 25.7607 11.1141C27.8759 12.4046 29.1617 14.119 29.1617 15.9974C29.1617 17.8758 27.8733 19.5902 25.7607 20.8806C24.8009 21.4686 23.6689 21.9681 22.4118 22.3532C20.5261 22.9359 18.3509 23.2689 16.0375 23.2689C14.3657 23.2689 12.7669 23.0946 11.2959 22.7798C11.7653 24.0806 12.3652 25.1811 13.0564 26.0033C14.0214 26.1203 15.0177 26.1802 16.0349 26.1802C17.7432 26.1802 19.3864 26.0111 20.9304 25.6963C19.6367 27.8062 17.918 29.0888 16.0349 29.0888C14.1518 29.0888 12.4304 27.8036 11.1368 25.6963C10.7221 25.0224 10.3543 24.2654 10.0335 23.438V23.4328C9.19111 21.1226 10.3882 18.5678 12.7069 17.7275C13.2155 17.5454 13.7371 17.4569 14.2457 17.4595C14.4909 17.4569 14.7647 17.4595 15.0516 17.4595L13.5728 21.1616H14.5874C15.2185 21.1616 15.8158 20.8156 16.2201 20.2198L18.1683 17.3424C19.5246 17.1837 20.7165 16.8221 21.1286 15.9974C20.7165 15.1753 19.522 14.8111 18.1683 14.6524L16.2201 11.775C15.8158 11.1792 15.2185 10.8332 14.5874 10.8332H13.5728L15.0516 14.5353C14.7647 14.5353 14.4935 14.5405 14.2457 14.5405V14.5353C13.3407 14.5353 12.4252 14.7044 11.5358 15.0582C10.4352 15.4953 9.50148 16.1665 8.76598 16.9912C6.97158 18.9997 6.35605 21.9187 7.42278 24.588C9.23545 29.0446 12.4148 32 16.0375 32C19.6602 32 22.8395 29.0446 24.6522 24.588C29.1173 22.7824 32.0776 19.6085 32.0776 16C32.0776 12.3915 29.1147 9.21756 24.6522 7.41203H24.6548Z" fill="#0057BE"/>
<path d="M89.697 21.6456L89.2067 20.3916L89.105 20.1237L88.2652 17.9695L88.153 17.6859L86.6846 13.9136L85.0597 9.74577H80.8032L75.8765 22.4729H79.0062L79.5357 21.0342C79.2488 20.6648 78.8054 20.4358 78.3307 20.337H85.4066C85.6466 20.3396 85.8709 20.3396 86.0847 20.337L86.1839 20.6102L86.5673 21.6404L86.875 22.4729H90.0204L89.697 21.6404V21.6456ZM84.7572 18.0528H80.6468L82.6446 12.6102H83.2236L83.6148 13.669L83.7505 14.0306L85.1328 17.7614L85.2423 18.0476C85.078 18.0502 84.9189 18.0502 84.7572 18.0502V18.0528Z" fill="#0057BE"/>
<path d="M69.6039 22.4807C67.6087 22.4807 66.1821 22.5484 65.1701 21.8199C64.1581 21.0915 63.6548 19.9806 63.6652 18.482H66.4403C66.4924 19.1064 66.7845 19.5955 67.3192 19.9441C67.8539 20.2928 68.6076 20.2902 69.6457 20.3006C70.6316 20.3006 71.427 20.3292 71.9669 20.0222C72.5068 19.7152 72.7755 19.3041 72.7755 18.7916C72.7755 18.3519 72.5955 18.0085 72.2356 17.7614C71.8756 17.5142 71.2992 17.3269 70.509 17.1916L68.905 16.9158C68.3286 16.8144 67.8408 16.7129 67.4392 16.6167C67.0375 16.5204 66.6046 16.3695 66.1351 16.1718C65.6683 15.9715 65.2927 15.7451 65.0084 15.4876C64.7241 15.23 64.4894 14.8918 64.299 14.4729C64.1086 14.0515 64.0121 13.5702 64.0121 13.0264C64.0121 11.7958 64.505 10.8411 65.4987 10.1594C66.4898 9.4778 67.966 9.56626 69.7761 9.56626C73.5788 9.56626 75.4201 10.5965 75.454 13.5181H72.6946C72.4677 12.2173 71.474 11.6996 69.6639 11.6996C68.7902 11.6996 68.1017 11.7048 67.6426 11.9884C67.1862 12.2693 66.9567 12.6622 66.9567 13.1643C66.9567 13.9344 67.6113 14.4417 68.9154 14.6863L70.3186 14.9334C70.3812 14.9438 70.4777 14.9594 70.6107 14.9802C72.173 15.2664 73.2788 15.5708 73.9256 15.8882C75.1802 16.5126 75.8139 17.5142 75.8244 18.8879C75.8244 20.1809 75.3028 21.1747 74.2543 21.8719C73.2058 22.5692 71.6044 22.4859 69.5987 22.4859L69.6039 22.4807Z" fill="#0057BE"/>
<path d="M60.7804 9.56365L57.4316 15.282H57.1238L53.7384 9.56365H49.3724C48.3917 9.56365 47.5884 10.1048 47.2833 10.9685L44.5786 18.6225H44.3465L41.1307 9.56365H37.2002L37.2106 22.4833H40.1552L40.1474 14.7019H40.4082L43.2667 22.4833H45.6558L48.5013 14.7019H48.7621L48.7699 22.4833H51.7145L51.7041 11.3432L55.8354 18.1906L55.8484 22.4807H58.9156V18.3754L64.2102 9.56625H60.7726L60.7804 9.56365Z" fill="#0057BE"/>
<path d="M100.163 12.2745H93.6064L93.6012 15.3211H98.9766L98.0559 17.7302H93.5881L93.5699 22.4755H90.5444L90.5679 9.74056H101.139L100.163 12.2719V12.2745Z" fill="#0057BE"/>
<path d="M123.329 10.9139C122.442 10.136 121.143 9.74837 119.432 9.74837H112.732L112.737 14.4807L112.742 22.4781H115.765V18.6876H117.046H119.878L121.978 22.4755H124.985L122.492 18.0814C123.17 17.7171 123.702 17.2124 124.085 16.5672C124.469 15.9194 124.664 15.1676 124.659 14.3064C124.659 12.8235 124.216 11.6918 123.329 10.9139ZM121.654 14.3246C121.654 14.9906 121.448 15.498 121.041 15.8492C120.674 16.1614 120.155 16.3253 119.495 16.3565H115.763V16.3201V13.3464C115.525 12.7558 114.967 12.4098 114.352 12.2824H119.268C120.04 12.2824 120.629 12.4541 121.041 12.8027C121.448 13.1513 121.654 13.6612 121.657 14.3272L121.654 14.3246Z" fill="#0057BE"/>
<path d="M111.694 21.6456L111.204 20.3916L111.102 20.1237L110.262 17.9695L110.15 17.6859L108.682 13.9136L107.057 9.74577H102.8L97.8735 22.4729H101.003L101.533 21.0342C101.246 20.6648 100.802 20.4358 100.328 20.337H107.404C107.644 20.3396 107.868 20.3396 108.082 20.337L108.181 20.6102L108.564 21.6404L108.872 22.4729H112.018L111.694 21.6404V21.6456ZM106.752 18.0528H102.641L104.639 12.6102H105.218L105.609 13.669L105.745 14.0306L107.127 17.7614L107.237 18.0476C107.072 18.0502 106.913 18.0502 106.752 18.0502V18.0528Z" fill="#0057BE"/>
</g>
<defs>
<clipPath id="clip0_11507_5554">
<rect width="125" height="32" fill="white"/>
</clipPath>
</defs>
</svg>
