<svg width="25" height="24" viewBox="0 0 25 24" fill="none"
    xmlns="http://www.w3.org/2000/svg">
<path d="M18.7567 5.55176C17.4022 2.21435 15.0254 0 12.3201 0C9.61472 0 7.23792 2.21435 5.88342 5.55176C2.54663 6.90504 0.333496 9.28183 0.333496 11.9866C0.333496 14.3304 1.99395 16.4269 4.60953 17.826C4.4251 17.0131 4.39456 16.1576 4.53991 15.3032C3.26846 14.3847 2.51304 13.2348 2.51304 11.986C2.51304 10.5783 3.47548 9.29466 5.05533 8.32672C4.81899 9.48092 4.69258 10.7096 4.69258 11.986C4.69258 12.7456 4.73716 13.4889 4.82449 14.2089C4.82449 14.2076 4.82571 14.2064 4.82571 14.2058C5.24647 13.0205 5.97319 12.0318 6.88617 11.2983C6.94174 9.82595 7.17808 8.44458 7.55609 7.22321C8.96739 6.78595 10.5906 6.53802 12.3201 6.53802C13.5689 6.53802 14.764 6.66748 15.8627 6.90504C15.5127 5.92977 15.0639 5.10595 14.5442 4.49038C13.8236 4.40305 13.0798 4.35847 12.3201 4.35847C11.0443 4.35847 9.8138 4.48611 8.6596 4.72122C9.62693 3.14137 10.9106 2.17893 12.3201 2.17893C13.7295 2.17893 15.0126 3.14137 15.9793 4.72122C16.4196 5.43817 16.7933 6.28397 17.0828 7.22321C17.5201 8.63328 17.768 10.2571 17.768 11.986C17.768 13.2348 17.6385 14.4287 17.4016 15.5273C18.3756 15.1774 19.1994 14.7298 19.815 14.2119C19.9024 13.4907 19.9469 12.7463 19.9469 11.986C19.9469 10.7096 19.8205 9.48092 19.5842 8.32672C21.164 9.29466 22.1265 10.5777 22.1265 11.986C22.1265 13.3942 21.164 14.6773 19.5842 15.6452C18.866 16.0855 18.0214 16.4592 17.0822 16.7493C15.6721 17.1866 14.0477 17.4345 12.3194 17.4345C11.0694 17.4345 9.87548 17.305 8.77685 17.0675C9.128 18.0427 9.57563 18.8666 10.0935 19.4821C10.8147 19.5695 11.5591 19.614 12.3194 19.614C13.5958 19.614 14.8245 19.4864 15.9787 19.2513C15.012 20.8311 13.7283 21.7936 12.3194 21.7936C10.9106 21.7936 9.62693 20.8311 8.65899 19.2513C8.34937 18.7469 8.07395 18.1789 7.83518 17.5603C7.83518 17.5591 7.83395 17.5573 7.83395 17.556C7.20495 15.8247 8.0996 13.9108 9.83151 13.2812C10.212 13.1438 10.601 13.0785 10.982 13.0797V13.0773C11.1659 13.0773 11.3692 13.0791 11.5836 13.0803L10.4776 15.8547H11.2349C11.7063 15.8547 12.1533 15.5963 12.4556 15.1493L13.9109 12.9942C14.9234 12.8757 15.815 12.6034 16.124 11.9872C15.8156 11.3704 14.9234 11.098 13.9109 10.9802L12.4556 8.82504C12.154 8.37801 11.7069 8.11969 11.2349 8.11969H10.4776L11.5836 10.894C11.3692 10.8953 11.1659 10.8971 10.982 10.8971V10.8922C10.3066 10.8934 9.62205 11.0198 8.95762 11.2837C8.13624 11.6104 7.4364 12.1142 6.88739 12.7316C5.54693 14.2363 5.08708 16.4232 5.88281 18.422V18.4232C7.23731 21.7606 9.61411 23.9737 12.3194 23.9737C15.0248 23.9737 17.4016 21.7594 18.7561 18.422C22.0929 17.0687 24.306 14.6919 24.306 11.9872C24.306 9.28244 22.0929 6.90626 18.7561 5.55237L18.7567 5.55176Z"
    fill="#8E8E92"/>
</svg>
