<svg width="24" height="24" viewBox="0 0 24 24" fill="none" xmlns="http://www.w3.org/2000/svg">
<path fill-rule="evenodd" clip-rule="evenodd" d="M5.01098 3.45996H12.0003C12.04 4.87503 13.1996 6.00996 14.6242 6.00996C16.0489 6.00996 17.2085 4.87503 17.2482 3.45996H18.9875C21.0926 3.45996 22.7992 5.16655 22.7992 7.27173V16.7287C22.7992 18.8338 21.0926 20.5404 18.9875 20.5404H17.2482C17.2085 19.1254 16.0489 17.9904 14.6242 17.9904C13.1996 17.9904 12.04 19.1254 12.0003 20.5404H5.011C2.90582 20.5404 1.19923 18.8338 1.19923 16.7287L1.19922 7.27172C1.19922 5.16655 2.9058 3.45996 5.01098 3.45996ZM13.5 9V15C13.5 15 13.5 16 14.5 16C15.5 16 15.5 15 15.5 15V9C15.5 9 15.5 8 14.5 8C13.5 8 13.5 9 13.5 9Z" fill="#0057BE"/>
</svg>
