<svg width="6" height="102" viewBox="0 0 6 102" fill="none" xmlns="http://www.w3.org/2000/svg">
<path d="M3 5.33333C1.52724 5.33333 0.333333 6.52724 0.333333 8C0.333333 9.47276 1.52724 10.6667 3 10.6667C4.47276 10.6667 5.66667 9.47276 5.66667 8C5.66667 6.52724 4.47276 5.33333 3 5.33333ZM3 91.3333C1.52724 91.3333 0.33333 92.5272 0.333329 94C0.333329 95.4728 1.52724 96.6667 3 96.6667C4.47276 96.6667 5.66666 95.4728 5.66666 94C5.66666 92.5272 4.47276 91.3333 3 91.3333ZM2.5 8L2.5 94L3.5 94L3.5 8L2.5 8Z" fill="#FFC107"/>
</svg>
