<svg width="24" height="24" viewBox="0 0 24 24" fill="none" xmlns="http://www.w3.org/2000/svg">
<g clip-path="url(#clip0_12367_21322)">
<path d="M12 24C18.6274 24 24 18.6274 24 12C24 5.37261 18.6274 3.05176e-05 12 3.05176e-05C5.37258 3.05176e-05 0 5.37261 0 12C0 18.6274 5.37258 24 12 24Z" fill="#F7F7F7"/>
<path d="M2.4813 4.69427C1.53869 5.92067 0.827922 7.33418 0.414062 8.86976H6.65678L2.4813 4.69427Z" fill="#0057BE"/>
<path d="M23.5864 8.86977C23.1725 7.33424 22.4617 5.92073 21.5191 4.69434L17.3438 8.86977H23.5864Z" fill="#0057BE"/>
<path d="M0.414062 15.1306C0.827969 16.6661 1.53873 18.0797 2.4813 19.306L6.65664 15.1306H0.414062Z" fill="#0057BE"/>
<path d="M19.3063 2.48076C18.0799 1.53815 16.6664 0.827389 15.1309 0.413483V6.65615L19.3063 2.48076Z" fill="#0057BE"/>
<path d="M4.69531 21.5194C5.9217 22.462 7.33522 23.1728 8.87075 23.5867V17.3441L4.69531 21.5194Z" fill="#0057BE"/>
<path d="M8.8707 0.413483C7.33517 0.827389 5.92166 1.53815 4.69531 2.48072L8.8707 6.65611V0.413483Z" fill="#0057BE"/>
<path d="M15.1309 23.5867C16.6664 23.1728 18.0799 22.462 19.3063 21.5195L15.1309 17.3441V23.5867Z" fill="#0057BE"/>
<path d="M17.3438 15.1306L21.5191 19.3061C22.4617 18.0797 23.1725 16.6661 23.5864 15.1306H17.3438Z" fill="#0057BE"/>
<path d="M23.8984 10.4348H13.5653H13.5653V0.101609C13.0529 0.0349055 12.5305 3.05176e-05 12 3.05176e-05C11.4694 3.05176e-05 10.9471 0.0349055 10.4348 0.101609V10.4347V10.4348H0.101578C0.034875 10.9472 0 11.4695 0 12C0 12.5306 0.034875 13.0529 0.101578 13.5652H10.4347H10.4348V23.8985C10.9471 23.9652 11.4694 24 12 24C12.5305 24 13.0529 23.9652 13.5652 23.8985V13.5653V13.5653H23.8984C23.9651 13.0529 24 12.5306 24 12C24 11.4695 23.9651 10.9472 23.8984 10.4348Z" fill="#D92D20"/>
<path d="M15.1309 15.1305L20.4857 20.4854C20.732 20.2392 20.9669 19.9818 21.191 19.715L16.6066 15.1305H15.1309V15.1305Z" fill="#D92D20"/>
<path d="M8.86853 15.1305H8.86843L3.51367 20.4853C3.75986 20.7315 4.01725 20.9665 4.28406 21.1906L8.86853 16.6061V15.1305Z" fill="#D92D20"/>
<path d="M8.86878 8.86966V8.86957L3.51397 3.51471C3.26769 3.7609 3.03275 4.01829 2.80859 4.2851L7.39311 8.86962H8.86878V8.86966Z" fill="#D92D20"/>
<path d="M15.1309 8.86968L20.4857 3.51478C20.2395 3.2685 19.9821 3.03356 19.7153 2.80945L15.1309 7.39396V8.86968Z" fill="#D92D20"/>
</g>
<defs>
<clipPath id="clip0_12367_21322">
<rect width="24" height="24" fill="white"/>
</clipPath>
</defs>
</svg>
