<svg width="254" height="64" viewBox="0 0 254 64" fill="none" xmlns="http://www.w3.org/2000/svg">
<g clip-path="url(#clip0_12124_17119)">
<path d="M50.0986 14.8241C46.4152 5.91089 39.9495 0 32.5935 0C25.2374 0 18.7717 5.91089 15.0884 14.8241C6.02052 18.4351 0 24.7779 0 32C0 38.2595 4.51539 43.853 11.6277 47.5889C11.1295 45.4192 11.0447 43.135 11.4369 40.8559C7.98143 38.4052 5.92512 35.3353 5.92512 32C5.92512 28.2433 8.5432 24.8143 12.836 22.2335C12.1947 25.3138 11.8502 28.5971 11.8502 32C11.8502 34.0293 11.9721 36.0117 12.2106 37.9369C12.2106 37.9369 12.2106 37.9317 12.2106 37.9265C13.3554 34.7629 15.3322 32.1249 17.8125 30.1633C17.9662 26.2348 18.6074 22.5457 19.6356 19.2833C23.4726 18.1177 27.8873 17.4517 32.5882 17.4517C35.9853 17.4517 39.2341 17.8003 42.2231 18.4299C41.2745 15.8283 40.0502 13.6273 38.6405 11.9831C36.6796 11.7489 34.6604 11.6293 32.5935 11.6293C29.1221 11.6293 25.778 11.9675 22.6405 12.5971C25.2692 8.37724 28.7618 5.81203 32.5935 5.81203C36.4252 5.81203 39.9177 8.38244 42.5411 12.5971C43.7389 14.5119 44.7564 16.7701 45.5408 19.278C46.7279 23.04 47.4063 27.3795 47.4063 31.9948C47.4063 35.3301 47.0512 38.5145 46.4099 41.4491C49.0598 40.5177 51.2963 39.321 52.971 37.9369C53.2095 36.0117 53.3314 34.0241 53.3314 31.9948C53.3314 28.5867 52.9869 25.3086 52.3457 22.2283C56.6438 24.8091 59.2565 28.238 59.2565 31.9948C59.2565 35.7515 56.6385 39.1805 52.3457 41.7613C50.3954 42.9372 48.0953 43.9363 45.5408 44.7063C41.7091 45.8719 37.2891 46.5379 32.5882 46.5379C29.191 46.5379 25.9423 46.1893 22.9532 45.5597C23.9072 48.1613 25.1261 50.3623 26.5306 52.0065C28.4915 52.2406 30.516 52.3603 32.5829 52.3603C36.0542 52.3603 39.3931 52.0221 42.5305 51.3925C39.9018 55.6124 36.4093 58.1776 32.5829 58.1776C28.7565 58.1776 25.2586 55.6072 22.6299 51.3925C21.7873 50.0449 21.04 48.5307 20.3882 46.8761V46.8657C18.6763 42.2452 21.1089 37.1356 25.8204 35.455C26.8539 35.0907 27.9138 34.9138 28.9473 34.919C29.4454 34.9138 30.0019 34.919 30.5849 34.919L27.5799 42.3232H29.6415C30.9241 42.3232 32.1377 41.6312 32.9592 40.4397L36.9181 34.6849C39.674 34.3675 42.0959 33.6442 42.9333 31.9948C42.0959 30.3506 39.6687 29.6221 36.9181 29.3047L32.9592 23.5499C32.1377 22.3584 30.9241 21.6663 29.6415 21.6663H27.5799L30.5849 29.0706C30.0019 29.0706 29.4507 29.081 28.9473 29.081V29.0706C27.1082 29.0706 25.248 29.4088 23.4408 30.1164C21.2043 30.9906 19.307 32.333 17.8125 33.9824C14.1662 37.9993 12.9155 43.8374 15.0831 49.1759C18.7664 58.0891 25.2268 64 32.5882 64C39.9495 64 46.4099 58.0891 50.0933 49.1759C59.1664 45.5649 65.1817 39.2169 65.1817 32C65.1817 24.7831 59.1611 18.4351 50.0933 14.8241H50.0986Z" fill="#0057BE"/>
<path d="M182.263 43.2912L181.267 40.7832L181.06 40.2473L179.354 35.939L179.126 35.3719L176.142 27.8271L172.84 19.4915H164.191L154.18 44.9458H160.539L161.615 42.0684C161.032 41.3296 160.131 40.8717 159.167 40.674H173.545C174.033 40.6792 174.488 40.6792 174.923 40.674L175.124 41.2203L175.903 43.2808L176.529 44.9458H182.92L182.263 43.2808V43.2912ZM172.225 36.1055H163.873L167.933 25.2203H169.109L169.904 27.338L170.18 28.0613L172.989 35.5228L173.211 36.0951C172.877 36.1003 172.554 36.1003 172.225 36.1003V36.1055Z" fill="#0057BE"/>
<path d="M141.435 44.9615C137.381 44.9615 134.482 45.0967 132.425 43.6398C130.369 42.1829 129.346 39.9611 129.368 36.9641H135.006C135.112 38.2128 135.706 39.191 136.792 39.8883C137.879 40.5855 139.411 40.5803 141.52 40.6011C143.523 40.6011 145.14 40.6584 146.237 40.0444C147.334 39.4304 147.88 38.6083 147.88 37.5832C147.88 36.7039 147.514 36.0171 146.782 35.5228C146.051 35.0284 144.88 34.6538 143.274 34.3832L140.015 33.8317C138.843 33.6288 137.852 33.4258 137.036 33.2333C136.22 33.0408 135.34 32.739 134.386 32.3436C133.438 31.9429 132.675 31.4902 132.097 30.9751C131.519 30.46 131.042 29.7836 130.655 28.9458C130.268 28.1029 130.072 27.1403 130.072 26.0528C130.072 23.5917 131.074 21.6821 133.093 20.3189C135.107 18.9556 138.107 19.1325 141.785 19.1325C149.512 19.1325 153.253 21.193 153.322 27.0363H147.715C147.254 24.4346 145.235 23.3992 141.557 23.3992C139.782 23.3992 138.382 23.4096 137.45 23.9767C136.522 24.5387 136.056 25.3244 136.056 26.3286C136.056 27.8688 137.386 28.8834 140.036 29.3725L142.887 29.8668C143.014 29.8876 143.21 29.9189 143.481 29.9605C146.655 30.5328 148.902 31.1416 150.217 31.7764C152.766 33.0252 154.054 35.0284 154.075 37.7758C154.075 40.3618 153.015 42.3494 150.885 43.7439C148.754 45.1384 145.5 44.9719 141.424 44.9719L141.435 44.9615Z" fill="#0057BE"/>
<path d="M123.505 19.1273L116.7 30.5641H116.075L109.196 19.1273H100.324C98.3311 19.1273 96.6988 20.2096 96.0787 21.9371L90.5828 37.245H90.1112L83.5766 19.1273H75.5898L75.611 44.9667H81.5945L81.5786 29.4037H82.1085L87.9171 44.9667H92.7716L98.5537 29.4037H99.0837L99.0996 44.9667H105.083L105.062 22.6863L113.457 36.3813L113.483 44.9615H119.716V36.7507L130.474 19.1325H123.489L123.505 19.1273Z" fill="#0057BE"/>
<path d="M203.532 24.5491H190.208L190.198 30.6421H201.12L199.25 35.4603H190.171L190.134 44.951H183.986L184.034 19.4811H205.514L203.532 24.5439V24.5491Z" fill="#0057BE"/>
<path d="M250.603 21.8278C248.801 20.272 246.162 19.4967 242.685 19.4967H229.07L229.081 28.9615L229.091 44.9563H235.234V37.3751H237.836H243.592L247.858 44.951H253.969L248.902 36.1628C250.28 35.4343 251.361 34.4249 252.14 33.1345C252.919 31.8389 253.317 30.3351 253.306 28.6128C253.306 25.647 252.405 23.3836 250.603 21.8278ZM247.201 28.6493C247.201 29.9813 246.782 30.9959 245.955 31.6984C245.208 32.3228 244.153 32.6506 242.813 32.713H235.229V32.6402V26.6928C234.746 25.5117 233.612 24.8197 232.361 24.5647H242.351C243.92 24.5647 245.118 24.9081 245.955 25.6054C246.782 26.3026 247.201 27.3224 247.206 28.6545L247.201 28.6493Z" fill="#0057BE"/>
<path d="M226.962 43.2912L225.966 40.7832L225.759 40.2473L224.053 35.939L223.825 35.3719L220.841 27.8271L217.539 19.4915H208.89L198.879 44.9458H205.239L206.314 42.0684C205.731 41.3296 204.831 40.8717 203.866 40.674H218.244C218.732 40.6792 219.188 40.6792 219.622 40.674L219.824 41.2203L220.603 43.2808L221.228 44.9458H227.619L226.962 43.2808V43.2912ZM216.919 36.1055H208.567L212.626 25.2203H213.803L214.598 27.338L214.874 28.0613L217.682 35.5228L217.905 36.0951C217.571 36.1003 217.248 36.1003 216.919 36.1003V36.1055Z" fill="#0057BE"/>
</g>
<defs>
<clipPath id="clip0_12124_17119">
<rect width="254" height="64" fill="white"/>
</clipPath>
</defs>
</svg>
