<svg width="64" height="65" viewBox="0 0 64 65" fill="none" xmlns="http://www.w3.org/2000/svg">
<path d="M49.1903 15.3241C45.5738 6.41089 39.2253 0.5 32.0026 0.5C24.7799 0.5 18.4314 6.41089 14.8149 15.3241C5.91137 18.9351 0 25.2779 0 32.5C0 38.7595 4.43353 44.353 11.4169 48.0889C10.9277 45.9192 10.8445 43.635 11.2295 41.3559C7.83673 38.9052 5.81771 35.8353 5.81771 32.5C5.81771 28.7433 8.38832 25.3143 12.6033 22.7335C11.9737 25.8138 11.6354 29.0971 11.6354 32.5C11.6354 34.5293 11.7551 36.5117 11.9893 38.4369C11.9893 38.4369 11.9893 38.4317 11.9893 38.4265C13.1133 35.2629 15.0542 32.6249 17.4896 30.6633C17.6405 26.7348 18.2701 23.0457 19.2796 19.7833C23.0471 18.6177 27.3817 17.9517 31.9974 17.9517C35.333 17.9517 38.5228 18.3003 41.4577 18.9299C40.5262 16.3283 39.3242 14.1273 37.94 12.4831C36.0146 12.2489 34.032 12.1293 32.0026 12.1293C28.5942 12.1293 25.3107 12.4675 22.2301 13.0971C24.8111 8.87724 28.2403 6.31203 32.0026 6.31203C35.7649 6.31203 39.1941 8.88244 41.7699 13.0971C42.9459 15.0119 43.945 17.2701 44.7152 19.778C45.8808 23.54 46.5469 27.8795 46.5469 32.4948C46.5469 35.8301 46.1982 39.0145 45.5686 41.9491C48.1704 41.0177 50.3664 39.821 52.0107 38.4369C52.2449 36.5117 52.3646 34.5241 52.3646 32.4948C52.3646 29.0867 52.0263 25.8086 51.3967 22.7283C55.6169 25.3091 58.1823 28.738 58.1823 32.4948C58.1823 36.2515 55.6117 39.6805 51.3967 42.2613C49.4817 43.4372 47.2234 44.4363 44.7152 45.2063C40.9529 46.3719 36.6131 47.0379 31.9974 47.0379C28.6618 47.0379 25.472 46.6893 22.5371 46.0597C23.4738 48.6613 24.6706 50.8623 26.0496 52.5065C27.975 52.7406 29.9628 52.8603 31.9922 52.8603C35.4006 52.8603 38.6789 52.5221 41.7595 51.8925C39.1785 56.1124 35.7492 58.6776 31.9922 58.6776C28.2351 58.6776 24.8007 56.1072 22.2197 51.8925C21.3923 50.5449 20.6586 49.0307 20.0185 47.3761V47.3657C18.3378 42.7452 20.7262 37.6356 25.3523 35.955C26.367 35.5907 27.4078 35.4138 28.4225 35.419C28.9116 35.4138 29.458 35.419 30.0304 35.419L27.0799 42.8232H29.1042C30.3634 42.8232 31.5551 42.1312 32.3617 40.9397L36.2488 35.1849C38.9547 34.8675 41.3328 34.1442 42.155 32.4948C41.3328 30.8506 38.9495 30.1221 36.2488 29.8047L32.3617 24.0499C31.5551 22.8584 30.3634 22.1663 29.1042 22.1663H27.0799L30.0304 29.5706C29.458 29.5706 28.9168 29.581 28.4225 29.581V29.5706C26.6168 29.5706 24.7903 29.9088 23.0159 30.6164C20.8199 31.4906 18.957 32.833 17.4896 34.4824C13.9094 38.4993 12.6814 44.3374 14.8097 49.6759C18.4262 58.5891 24.7695 64.5 31.9974 64.5C39.2253 64.5 45.5686 58.5891 49.1851 49.6759C58.0938 46.0649 64 39.7169 64 32.5C64 25.2831 58.0886 18.9351 49.1851 15.3241H49.1903Z" fill="#0057BE"/>
</svg>
