<svg width="24" height="24" viewBox="0 0 24 24" fill="none" xmlns="http://www.w3.org/2000/svg">
<g clip-path="url(#clip0_12367_17182)">
<path d="M12 24.0001C18.6274 24.0001 24 18.6275 24 12.0001C24 5.37264 18.6274 6.10352e-05 12 6.10352e-05C5.37258 6.10352e-05 0 5.37264 0 12.0001C0 18.6275 5.37258 24.0001 12 24.0001Z" fill="#F7F7F7"/>
<path d="M23.2536 16.1739C23.736 14.8739 24 13.4678 24 12C24 10.5322 23.736 9.1261 23.2536 7.82611H0.746391C0.264047 9.1261 0 10.5322 0 12C0 13.4678 0.264047 14.8739 0.746391 16.1739L12 17.2174L23.2536 16.1739Z" fill="#0057BE"/>
<path d="M11.9997 24C17.1593 24 21.5578 20.7435 23.2533 16.1739H0.746094C2.44161 20.7435 6.84012 24 11.9997 24Z" fill="#D92D20"/>
</g>
<defs>
<clipPath id="clip0_12367_17182">
<rect width="24" height="24" fill="white"/>
</clipPath>
</defs>
</svg>
