<svg width="24" height="24" viewBox="0 0 24 24" fill="none" xmlns="http://www.w3.org/2000/svg">
<g clip-path="url(#clip0_12367_21612)">
<path d="M0.566625 8.3478C0.199031 9.49942 -4.68667e-05 10.7263 8.276e-09 11.9998C-4.68667e-05 13.2734 0.199078 14.5004 0.566672 15.652L12 16.1738L23.4333 15.6521C23.8009 14.5004 24 13.2734 24 11.9999C24 10.7263 23.8009 9.49943 23.4333 8.34775L12 7.82603L0.566625 8.3478Z" fill="#F7F7F7"/>
<path d="M23.4332 8.34789L11.9999 7.82617L0.5665 8.34789C0.457562 8.68933 0.363766 9.03747 0.285156 9.39138H23.7144C23.6359 9.03742 23.5421 8.68923 23.4332 8.34789Z" fill="#D92D20"/>
<path d="M0.285156 14.6086C0.363672 14.9625 0.457469 15.3106 0.566406 15.6521L0.567531 15.6521L11.9997 16.1738L23.433 15.6521C23.542 15.3107 23.6358 14.9625 23.7143 14.6086H0.285156Z" fill="#D92D20"/>
<path d="M11.9997 23.9999C17.3536 23.9999 21.8878 20.4935 23.433 15.6521H0.566406C2.11164 20.4934 6.64595 23.9999 11.9997 23.9999Z" fill="#27AE60"/>
<path d="M11.9997 -4.57759e-05C6.64595 1.09911e-06 2.11173 3.50639 0.566406 8.34778L23.433 8.34783C21.8879 3.50634 17.3536 -9.26509e-05 11.9997 -4.57759e-05Z" fill="#0A84FF"/>
<path d="M5.48278 4.95656C5.48278 3.83264 6.27267 2.89373 7.3275 2.66339C7.16541 2.62795 6.99717 2.60878 6.82439 2.60878C5.52773 2.60878 4.47656 3.65991 4.47656 4.95661C4.47656 6.25331 5.52764 7.30444 6.82439 7.30444C6.99717 7.30444 7.16536 7.28522 7.3275 7.24983C6.27272 7.01939 5.48278 6.08048 5.48278 4.95656Z" fill="#F7F7F7"/>
<path d="M8.71433 6.02371L8.87323 6.51285H9.38755L8.97148 6.8152L9.13039 7.30434L8.71433 7.00204L8.29817 7.30434L8.45712 6.8152L8.04102 6.51285H8.55533L8.71433 6.02371Z" fill="#F7F7F7"/>
<path d="M10.3568 6.02371L10.5158 6.51285H11.0301L10.614 6.8152L10.7729 7.30434L10.3568 7.00204L9.9407 7.30434L10.0997 6.8152L9.68359 6.51285H10.1979L10.3568 6.02371Z" fill="#F7F7F7"/>
<path d="M11.9975 6.02371L12.1564 6.51285H12.6708L12.2547 6.8152L12.4136 7.30434L11.9975 7.00204L11.5814 7.30434L11.7404 6.8152L11.3242 6.51285H11.8386L11.9975 6.02371Z" fill="#F7F7F7"/>
<path d="M13.6401 6.02371L13.7991 6.51285H14.3133L13.8973 6.8152L14.0562 7.30434L13.6401 7.00204L13.224 7.30434L13.383 6.8152L12.9668 6.51285H13.4811L13.6401 6.02371Z" fill="#F7F7F7"/>
<path d="M15.2806 6.02371L15.4396 6.51285H15.9539L15.5378 6.8152L15.6968 7.30434L15.2806 7.00204L14.8645 7.30434L15.0235 6.8152L14.6074 6.51285H15.1217L15.2806 6.02371Z" fill="#F7F7F7"/>
<path d="M10.3568 4.31621L10.5158 4.8053H11.0301L10.614 5.10769L10.7729 5.59679L10.3568 5.29449L9.9407 5.59679L10.0997 5.10769L9.68359 4.8053H10.1979L10.3568 4.31621Z" fill="#F7F7F7"/>
<path d="M11.9975 4.31621L12.1564 4.8053H12.6708L12.2547 5.10769L12.4136 5.59679L11.9975 5.29449L11.5814 5.59679L11.7404 5.10769L11.3242 4.8053H11.8386L11.9975 4.31621Z" fill="#F7F7F7"/>
<path d="M13.6401 4.31621L13.7991 4.8053H14.3133L13.8973 5.10769L14.0562 5.59679L13.6401 5.29449L13.224 5.59679L13.383 5.10769L12.9668 4.8053H13.4811L13.6401 4.31621Z" fill="#F7F7F7"/>
<path d="M15.2806 4.31621L15.4396 4.8053H15.9539L15.5378 5.10769L15.6968 5.59679L15.2806 5.29449L14.8645 5.59679L15.0235 5.10769L14.6074 4.8053H15.1217L15.2806 4.31621Z" fill="#F7F7F7"/>
<path d="M11.9975 2.60864L12.1564 3.09783H12.6708L12.2547 3.40013L12.4136 3.88931L11.9975 3.58702L11.5814 3.88931L11.7404 3.40013L11.3242 3.09783H11.8386L11.9975 2.60864Z" fill="#F7F7F7"/>
<path d="M13.6401 2.60864L13.7991 3.09783H14.3133L13.8973 3.40013L14.0562 3.88931L13.6401 3.58702L13.224 3.88931L13.383 3.40013L12.9668 3.09783H13.4811L13.6401 2.60864Z" fill="#F7F7F7"/>
<path d="M15.2806 2.60864L15.4396 3.09783H15.9539L15.5378 3.40013L15.6968 3.88931L15.2806 3.58702L14.8645 3.88931L15.0235 3.40013L14.6074 3.09783H15.1217L15.2806 2.60864Z" fill="#F7F7F7"/>
</g>
<defs>
<clipPath id="clip0_12367_21612">
<rect width="24" height="24" fill="white"/>
</clipPath>
</defs>
</svg>
