<svg width="24" height="24" viewBox="0 0 24 24" fill="none" xmlns="http://www.w3.org/2000/svg">
<path d="M5.20677 9.75593C3.49991 9.75593 3.5 11.5115 3.5 13.2967C3.5 15.3866 3.87541 16.5849 5.20675 16.5849C6.53808 16.5849 6.91368 14.9574 6.91368 13.2967C6.91368 11.7694 6.79798 9.75593 5.20677 9.75593ZM5.20677 9.75593C5.12287 6.02346 8.16302 3 12 3C15.837 3 18.8771 6.02346 18.7932 9.75593M18.7933 16.5849C20.1246 16.5849 20.5 15.3866 20.5 13.2967C20.5 11.5115 20.5001 9.75593 18.7932 9.75593M18.7933 16.5849C17.4619 16.5849 17.0863 14.9574 17.0863 13.2967C17.0863 11.7694 17.202 9.75593 18.7932 9.75593M18.7933 16.5849C18.7932 17.6038 18.0208 19.9811 14.125 19.9811M14.125 19.9811C14.125 19.9811 13.8107 18.9623 12 18.9623C10.1893 18.9623 9.875 19.6415 9.875 19.9811C9.875 20.3208 10.2292 21 12 21C13.7708 21 14.125 19.9811 14.125 19.9811Z" stroke="#1C1C1C" stroke-width="1.5" stroke-linecap="round" stroke-linejoin="round"/>
</svg>
