<svg width="25" height="24" viewBox="0 0 25 24" fill="none" xmlns="http://www.w3.org/2000/svg">
<path d="M18.5 9V7.2C18.5 6.0799 18.5 5.51984 18.282 5.09202C18.0903 4.71569 17.7843 4.40973 17.408 4.21799C16.9802 4 16.4201 4 15.3 4H7.7C6.5799 4 6.01984 4 5.59202 4.21799C5.21569 4.40973 4.90973 4.71569 4.71799 5.09202C4.5 5.51984 4.5 6.0799 4.5 7.2V18L8.5 16M20.5 20L18.3062 18.5374C18.0065 18.3377 17.8567 18.2378 17.6946 18.167C17.5507 18.1042 17.4 18.0586 17.2454 18.031C17.0713 18 16.8912 18 16.5311 18H11.7C10.5799 18 10.0198 18 9.59202 17.782C9.21569 17.5903 8.90973 17.2843 8.71799 16.908C8.5 16.4802 8.5 15.9201 8.5 14.8V12.2C8.5 11.0799 8.5 10.5198 8.71799 10.092C8.90973 9.71569 9.21569 9.40973 9.59202 9.21799C10.0198 9 10.5799 9 11.7 9H17.3C18.4201 9 18.9802 9 19.408 9.21799C19.7843 9.40973 20.0903 9.71569 20.282 10.092C20.5 10.5198 20.5 11.0799 20.5 12.2V20Z" stroke="white" stroke-width="1.5" stroke-linecap="round" stroke-linejoin="round"/>
</svg>
