<svg width="24" height="24" viewBox="0 0 24 24" fill="none" xmlns="http://www.w3.org/2000/svg">
<path d="M13 20V18C13 17.1419 12.7839 16.3344 12.4031 15.6288M13 20H3V18C3 15.2386 5.23858 13 8 13C9.90337 13 11.5583 14.0635 12.4031 15.6288M13 20H21V19C21 16.0545 18.7614 14 16 14C14.5878 14 13.3123 14.6245 12.4031 15.6288M12.4009 15.6311L12.4031 15.6288M11 7C11 8.65685 9.65685 10 8 10C6.34315 10 5 8.65685 5 7C5 5.34315 6.34315 4 8 4C9.65685 4 11 5.34315 11 7ZM18 9C18 10.1046 17.1046 11 16 11C14.8954 11 14 10.1046 14 9C14 7.89543 14.8954 7 16 7C17.1046 7 18 7.89543 18 9Z" stroke="#A7A7AA" stroke-width="1.5" stroke-linecap="round" stroke-linejoin="round"/>
</svg>
