<svg width="25" height="24" viewBox="0 0 25 24" fill="none" xmlns="http://www.w3.org/2000/svg">
<path d="M6.5 11H18.5M22.5 8V7.8C22.5 6.11984 22.5 5.27976 22.173 4.63803C21.8854 4.07354 21.4265 3.6146 20.862 3.32698C20.2202 3 19.3802 3 17.7 3H17.5M22.5 16V16.2C22.5 17.8802 22.5 18.7202 22.173 19.362C21.8854 19.9265 21.4265 20.3854 20.862 20.673C20.2202 21 19.3802 21 17.7 21H17.5M7.5 21H7.3C5.61984 21 4.77976 21 4.13803 20.673C3.57354 20.3854 3.1146 19.9265 2.82698 19.362C2.5 18.7202 2.5 17.8802 2.5 16.2V16M2.5 8V7.8C2.5 6.11984 2.5 5.27976 2.82698 4.63803C3.1146 4.07354 3.57354 3.6146 4.13803 3.32698C4.77976 3 5.61984 3 7.3 3H7.5M6.5 13.8V10.2C6.5 9.0799 6.5 8.51984 6.71799 8.09202C6.90973 7.71569 7.21569 7.40973 7.59202 7.21799C8.01984 7 8.5799 7 9.7 7H15.3C16.4201 7 16.9802 7 17.408 7.21799C17.7843 7.40973 18.0903 7.71569 18.282 8.09202C18.5 8.51984 18.5 9.0799 18.5 10.2V13.8C18.5 14.9201 18.5 15.4802 18.282 15.908C18.0903 16.2843 17.7843 16.5903 17.408 16.782C16.9802 17 16.4201 17 15.3 17H9.7C8.5799 17 8.01984 17 7.59202 16.782C7.21569 16.5903 6.90973 16.2843 6.71799 15.908C6.5 15.4802 6.5 14.9201 6.5 13.8Z" stroke="#1C1C1C" stroke-width="1.5" stroke-linecap="round" stroke-linejoin="round"/>
</svg>
