<svg width="52" height="30" viewBox="0 0 52 30" fill="none" xmlns="http://www.w3.org/2000/svg">
<path d="M26 9.6665V13.6665M26 20.3332H26.0267M46 1.729C48.5274 5.53023 50 10.0932 50 15.0002C50 19.9071 48.5274 24.4701 46 28.2714M6 1.729C3.47261 5.53023 2 10.0932 2 15.0002C2 19.9071 3.47261 24.4701 6 28.2714M39.3333 14.9998C39.3333 22.3636 33.3638 28.3332 26 28.3332C18.6362 28.3332 12.6667 22.3636 12.6667 14.9998C12.6667 7.63604 18.6362 1.6665 26 1.6665C33.3638 1.6665 39.3333 7.63604 39.3333 14.9998Z" stroke="#E2AE12" stroke-width="3" stroke-linecap="round" stroke-linejoin="round"/>
</svg>
