<svg width="16" height="16" viewBox="0 0 16 16" fill="none" xmlns="http://www.w3.org/2000/svg">
<path d="M8.66667 13.3334V12.0001C8.66667 11.428 8.52257 10.8897 8.2687 10.4193M8.66667 13.3334H2V12.0001C2 10.1591 3.49238 8.66675 5.33333 8.66675C6.60225 8.66675 7.70556 9.37577 8.2687 10.4193M8.66667 13.3334H14V12.6667C14 10.7031 12.5076 9.33341 10.6667 9.33341C9.72518 9.33341 8.87486 9.74976 8.2687 10.4193M8.26729 10.4208L8.2687 10.4193M7.33333 4.66675C7.33333 5.77132 6.4379 6.66675 5.33333 6.66675C4.22876 6.66675 3.33333 5.77132 3.33333 4.66675C3.33333 3.56218 4.22876 2.66675 5.33333 2.66675C6.4379 2.66675 7.33333 3.56218 7.33333 4.66675ZM12 6.00008C12 6.73646 11.403 7.33341 10.6667 7.33341C9.93029 7.33341 9.33333 6.73646 9.33333 6.00008C9.33333 5.2637 9.93029 4.66675 10.6667 4.66675C11.403 4.66675 12 5.2637 12 6.00008Z" stroke="#1C1C1C" stroke-width="1.5" stroke-linecap="round" stroke-linejoin="round"/>
</svg>
