<svg width="15" height="15" viewBox="0 0 15 15"
    fill="none" xmlns="http://www.w3.org/2000/svg">
<path d="M1 3.66683C1 9.37377 5.62639 14.0002 11.3333 14.0002C11.5908 14.0002 11.8461 13.9907 12.0989 13.9722C12.3889 13.951 12.534 13.9404 12.666 13.8644C12.7753 13.8014 12.879 13.6898 12.9338 13.5762C13 13.439 13 13.2789 13 12.9588V11.0806C13 10.8114 13 10.6769 12.9557 10.5615C12.9166 10.4596 12.853 10.3688 12.7706 10.2972C12.6773 10.2162 12.5508 10.1702 12.2979 10.0782L10.16 9.30076C9.86565 9.19373 9.71849 9.14022 9.57887 9.1493C9.45575 9.15731 9.33728 9.19933 9.23663 9.27068C9.12248 9.35159 9.04191 9.48586 8.88079 9.75441L8.33333 10.6668C6.56676 9.86676 5.1346 8.43275 4.33333 6.66683L5.24575 6.11938C5.5143 5.95825 5.64857 5.87769 5.72949 5.76354C5.80083 5.66288 5.84285 5.54441 5.85086 5.4213C5.85994 5.28167 5.80643 5.13451 5.6994 4.84019L4.92199 2.7023C4.83 2.44934 4.78401 2.32285 4.70295 2.22956C4.63134 2.14716 4.5406 2.0836 4.43868 2.04446C4.32331 2.00016 4.18872 2.00016 3.91954 2.00016H2.04134C1.72125 2.00016 1.56121 2.00016 1.42399 2.06633C1.31033 2.12113 1.19876 2.22484 1.1358 2.33418C1.05979 2.46621 1.04917 2.61124 1.02793 2.90131C1.00942 3.15407 1 3.40935 1 3.66683Z" fill="#0057BE"/>
<path d="M8.3667 4.00016C9.01786 4.12721 9.61629 4.44567 10.0854 4.91479C10.5545 5.38391 10.873 5.98234 11 6.6335M8.3667 1.3335C9.71955 1.48379 10.9811 2.08961 11.9442 3.0515C12.9073 4.01339 13.5147 5.27417 13.6667 6.62683M11.3333 14.0002C5.62639 14.0002 1 9.37377 1 3.66683C1 3.40935 1.00942 3.15407 1.02793 2.90131C1.04917 2.61124 1.05979 2.46621 1.1358 2.33418C1.19876 2.22484 1.31033 2.12113 1.42399 2.06633C1.56121 2.00016 1.72125 2.00016 2.04134 2.00016H3.91954C4.18872 2.00016 4.32331 2.00016 4.43868 2.04446C4.5406 2.0836 4.63134 2.14716 4.70295 2.22956C4.78401 2.32285 4.83 2.44934 4.92199 2.7023L5.6994 4.84019C5.80643 5.13451 5.85994 5.28167 5.85086 5.42129C5.84285 5.54441 5.80083 5.66288 5.72949 5.76354C5.64857 5.87769 5.5143 5.95825 5.24575 6.11938L4.33333 6.66683C5.1346 8.43275 6.56676 9.86676 8.33333 10.6668L8.88079 9.75441C9.04191 9.48586 9.12248 9.35159 9.23663 9.27068C9.33728 9.19933 9.45575 9.15731 9.57887 9.1493C9.71849 9.14022 9.86565 9.19373 10.16 9.30076L12.2979 10.0782C12.5508 10.1702 12.6773 10.2162 12.7706 10.2972C12.853 10.3688 12.9166 10.4596 12.9557 10.5615C13 10.6769 13 10.8114 13 11.0806V12.9588C13 13.2789 13 13.439 12.9338 13.5762C12.879 13.6898 12.7753 13.8014 12.666 13.8644C12.534 13.9404 12.3889 13.951 12.0989 13.9722C11.8461 13.9907 11.5908 14.0002 11.3333 14.0002Z" stroke="#0057BE" stroke-linecap="round" stroke-linejoin="round"/>
</svg>
