<svg width="16" height="16" viewBox="0 0 16 16" fill="none" xmlns="http://www.w3.org/2000/svg">
<path d="M3.99992 7.33333H11.9999M14.6666 5.33333V5.2C14.6666 4.0799 14.6666 3.51984 14.4486 3.09202C14.2569 2.71569 13.9509 2.40973 13.5746 2.21799C13.1467 2 12.5867 2 11.4666 2H11.3333M14.6666 10.6667V10.8C14.6666 11.9201 14.6666 12.4802 14.4486 12.908C14.2569 13.2843 13.9509 13.5903 13.5746 13.782C13.1467 14 12.5867 14 11.4666 14H11.3333M4.66659 14H4.53325C3.41315 14 2.85309 14 2.42527 13.782C2.04895 13.5903 1.74299 13.2843 1.55124 12.908C1.33325 12.4802 1.33325 11.9201 1.33325 10.8V10.6667M1.33325 5.33333V5.2C1.33325 4.0799 1.33325 3.51984 1.55124 3.09202C1.74299 2.71569 2.04895 2.40973 2.42527 2.21799C2.85309 2 3.41315 2 4.53325 2H4.66659M3.99992 9.2V6.8C3.99992 6.05326 3.99992 5.6799 4.14524 5.39468C4.27307 5.1438 4.47705 4.93982 4.72793 4.81199C5.01315 4.66667 5.38652 4.66667 6.13325 4.66667H9.86659C10.6133 4.66667 10.9867 4.66667 11.2719 4.81199C11.5228 4.93982 11.7268 5.1438 11.8546 5.39468C11.9999 5.6799 11.9999 6.05326 11.9999 6.8V9.2C11.9999 9.94674 11.9999 10.3201 11.8546 10.6053C11.7268 10.8562 11.5228 11.0602 11.2719 11.188C10.9867 11.3333 10.6133 11.3333 9.86659 11.3333H6.13325C5.38652 11.3333 5.01315 11.3333 4.72793 11.188C4.47705 11.0602 4.27307 10.8562 4.14524 10.6053C3.99992 10.3201 3.99992 9.94674 3.99992 9.2Z" stroke="#1C1C1C" stroke-width="1.5" stroke-linecap="round" stroke-linejoin="round"/>
</svg>
